<?xml version="1.0" encoding="UTF-8"?>
<svg
  width="512px"
  height="512px"
  viewBox="0 0 512 512"
  version="1.1"
  xmlns="http://www.w3.org/2000/svg"
  xmlns:xlink="http://www.w3.org/1999/xlink"
>
  <g
    id="Icon-global"
    stroke="none"
    stroke-width="1"
    fill="none"
    fill-rule="evenodd"
  >
    <g id="Group-10">
      <path
        d="M506.117224,114.299214 C499.570939,69.2638484 473.829878,30.1561162 434.808163,16.8150169 C422.363429,11.1960598 408.361796,7.4657838 393.132408,5.95379255 C356.853551,2.35954344 301.578449,-4.75164579e-12 247.175837,-4.75164579e-12 C196.691592,-4.75164579e-12 153.014857,-4.75164579e-12 112.990041,5.95379255 C99.3697959,7.98373236 86.3085714,11.8343398 74.3497143,17.3172701 C36.3102041,30.3601565 10.5377959,66.3392702 5.888,114.299214 C2.33012245,151.005549 0,206.917834 0,261.956408 C0,313.018812 0,357.206626 5.888,397.700786 C12.4342857,442.736152 38.1753469,481.838652 77.1970612,495.184983 C89.6365714,500.80394 103.643429,504.534216 118.872816,506.046207 C155.151673,509.640457 210.426776,512 264.829388,512 C315.313633,512 358.990367,512 399.015184,506.046207 C412.630204,504.016268 425.691429,500.16566 437.65551,494.677498 C475.69502,481.634612 501.467429,445.66073 506.117224,397.700786 C509.675102,360.994451 512,305.082166 512,250.043592 C512,198.981188 512,154.788143 506.117224,114.299214"
        id="Fill-13"
        fill="#47D7AC"
      ></path>

      <g id="Group" transform="translate(95.000000, 96.000000)" fill="#06041F">
        <path
          d="M178.268067,74.6311744 C187.9177,77.5882356 197.682272,81.2349295 207.462516,85.571256 C223.261374,92.5825213 236.912965,100.236399 248.610598,108.276889 C256.175659,94.3797458 260.010435,81.7678275 260.276884,70.0440724 C260.381374,65.6555009 259.764884,51.1418683 247.71721,48.7542765 C231.777292,45.5777867 206.30268,54.0048887 178.268067,74.6311744 M117.047496,80.451256 C87.0171287,80.451256 63.5539451,89.6463581 54.8394961,107.608154 C53.8625165,109.69795 53.0474961,111.960154 52.4675777,114.238032 C48.9776185,127.936644 53.3923124,142.972725 64.8861899,156.566848 C68.8045573,161.190521 73.3655369,165.45893 78.4594144,169.293705 C87.7172104,151.499093 100.135823,132.795419 114.947251,114.504481 C124.6857,102.48293 134.476394,91.9137867 144.162598,82.7082356 C134.716721,81.2035826 125.615659,80.451256 117.047496,80.451256 M91.745292,177.694685 C99.3625981,181.712317 107.732231,184.920154 116.587741,187.177134 C119.132067,187.82497 121.754761,188.321297 124.387904,188.65044 C171.679986,194.721297 214.531251,159.158195 238.903496,123.913787 C239.32668,123.302521 239.739414,122.701705 240.146925,122.100889 C226.63117,112.597542 212.687006,105.032481 201.104312,99.8968071 C188.387904,94.2595826 175.645374,89.8605622 163.242435,86.6840724 C151.267904,97.091256 139.063496,109.635256 127.130761,124.373542 C112.611904,142.293542 100.548557,160.527011 91.745292,177.694685 M159.219578,319.220889 C145.500067,319.220889 131.791006,317.470685 118.536476,313.928481 C110.543006,311.78644 102.612231,308.97044 94.9531287,305.579746 C55.9888838,288.291909 26.0891287,256.871827 10.7552512,217.097787 C-4.5681774,177.313297 -3.48670801,133.950032 13.8011287,94.9857867 C47.0079859,20.1240724 130.735659,-17.340744 208.559659,7.77860298 C212.676557,9.11084788 214.938761,13.5307662 213.611741,17.6476642 C212.279496,21.7645622 207.880476,24.0110928 203.74268,22.6997458 C133.567333,0.0306846141 58.0682308,33.8383581 28.1266797,101.343991 C12.5315777,136.483909 11.5650471,175.583991 25.3838226,211.455338 C39.2078226,247.326685 66.1714144,275.664317 101.311333,291.254195 C108.223333,294.32097 115.386108,296.849623 122.601129,298.782685 C157.176802,308.056154 195.258108,303.714603 227.0857,286.860399 C256.431659,271.327991 289.690761,239.766848 293.358353,207.171256 C296.655006,177.846195 276.948231,151.582685 252.643904,131.588562 C252.367006,132.001297 252.079659,132.419256 251.792312,132.831991 C224.807823,171.853705 176.664149,211.105297 122.413047,204.203746 C119.15819,203.791011 115.898108,203.174521 112.732067,202.36995 C102.936149,199.877868 93.6417818,196.335664 85.1049655,191.894848 C83.1196593,196.628236 81.4217002,201.236236 80.0319859,205.692725 C73.579741,226.360807 74.347741,242.447011 82.1061083,248.721623 C90.0473328,255.168644 112.303659,250.738276 144.105129,226.334685 C147.537619,223.696317 152.453863,224.344154 155.092231,227.781868 C157.725374,231.219583 157.077537,236.135827 153.645047,238.774195 C118.160312,265.999011 88.4956593,274.076072 72.2370471,260.905134 C58.9250471,250.121787 56.3807206,228.858113 65.0690471,201.022032 C66.8192512,195.426603 68.9978634,189.627419 71.5892104,183.666276 C64.5257002,178.66644 58.2301899,172.966521 52.9221083,166.686685 C38.0584348,149.12195 32.5048022,129.117378 37.2799859,110.36146 C38.1106797,107.127501 39.254843,103.935338 40.6915777,100.868562 C56.2501083,68.8058683 103.975823,57.6411336 159.000149,69.5738683 C195.535006,39.5957458 229.185945,29.1258683 250.768312,33.378603 C266.744802,36.5446438 276.38921,50.7291336 275.950353,70.3941132 C275.615986,85.2212152 270.793782,100.821542 261.28521,117.733215 C299.601619,148.798032 311.759006,183.802113 308.932557,208.926685 C304.60668,247.37893 268.390516,282.733052 234.410435,300.715746 C211.31819,312.935827 185.237537,319.220889 159.219578,319.220889"
          id="Fill-14"
        ></path>

        <path
          d="M314.742712,165.034178 C310.568345,165.034178 307.099284,161.747974 306.916427,157.537036 C305.876753,133.666342 298.860263,110.166587 286.629733,89.5716479 C284.419774,85.8518111 285.647529,81.040056 289.37259,78.8300969 C293.092427,76.6305867 297.898957,77.8478928 300.108916,81.5677295 C313.650794,104.377852 321.41961,130.411485 322.579447,156.857852 C322.767529,161.178505 319.418631,164.840872 315.087529,165.028954 C314.97259,165.034178 314.852427,165.034178 314.742712,165.034178"
          id="Fill-15"
        ></path>
      </g>
    </g>
  </g>
</svg>
